<?xml version="1.0" encoding="UTF-8"?>
<svg id="Layer_2" data-name="Layer 2" xmlns="http://www.w3.org/2000/svg" xmlns:xlink="http://www.w3.org/1999/xlink" viewBox="0 0 435.66 128.27">
  <defs>
    <style>
      .cls-1 {
        fill: #fff;
      }

      .cls-2 {
        fill: url(#radial-gradient);
      }
    </style>
    <radialGradient id="radial-gradient" cx="-574.76" cy="-2113.56" fx="-574.76" fy="-2113.56" r="1" gradientTransform="translate(128230.74 -67593.18) rotate(48.56) scale(59 -66.53)" gradientUnits="userSpaceOnUse">
      <stop offset="0" stop-color="#ff6b4a"/>
      <stop offset=".03" stop-color="#ff6b4a"/>
      <stop offset=".27" stop-color="#ff5b56"/>
      <stop offset=".72" stop-color="#ff4469"/>
      <stop offset="1" stop-color="#ff3c71"/>
    </radialGradient>
  </defs>
  <g id="Layer_1-2" data-name="Layer 1">
    <g>
      <path class="cls-1" d="m58.94,73.61H20.93v33.58H.02v-30.63c-.06-7.32.03-28.01,0-38.25,0-10.33,6.89-17.22,17.22-17.22h48.83v19.06H20.93v14.51h38.01v18.94Z"/>
      <path class="cls-1" d="m109.86,88.73c8.73,0,16.61-5.41,16.61-16.48V21.08h20.91c-1.81,31.67,12.13,88.91-37.15,87.33-50.06,1.67-35.93-55.33-37.76-87.33h20.91v51.17c0,11.07,7.63,16.48,16.48,16.48Z"/>
      <path class="cls-1" d="m175.29,107.19h-20.91c1.85-32.08-12.33-88.96,37.76-87.33,49.25-1.62,35.35,55.75,37.15,87.33h-20.91v-51.17c0-11.07-7.87-16.48-16.61-16.48s-16.48,5.41-16.48,16.48v51.17Z"/>
      <path class="cls-1" d="m278.49,21.08c59.22-3.17,59.26,89.19,0,86.1h-38.87s0-86.1,0-86.1h38.87Zm-1.72,67.77c18.2,0,25.71-7.13,25.71-24.72s-7.87-24.72-28.91-24.72h-14.39v49.45h17.59Z"/>
      <path class="cls-2" d="m343.45,14.91c1.08,6.61,4.68,24.37,10.07,28.29-6.68-4.86-14.92-17.35-19.66-25.45-.68-1.16.08-2.68,1.32-2.69,2.89-.02,5.8-.08,8.28-.15m61.49,2.18c2.13.11,4.49.2,6.88.25,1.32.02,2.03,1.71,1.21,2.84-4.98,6.85-13.2,16.79-19.21,20.12,5.07-2.81,9.77-17.8,11.12-23.21m-53.56,70.12c-3.46,6.8-6.64,19.64-8.04,27.52-.15.83-.81,1.41-1.57,1.39-2.7-.07-5.73-.13-8.73-.14-1.25,0-2-1.54-1.31-2.7,5.18-8.78,13.3-20.33,19.65-26.07m45.27,1.89c5.99,4.89,13.76,14.18,19.16,21.66.81,1.13.12,2.8-1.18,2.85l-7.54.3c-.72.03-1.37-.48-1.58-1.25-1.77-6.67-5.46-17.67-8.87-23.55M349.89,0c-9.93.36-22.84.7-32.88.18-1.23-.06-2.04,1.38-1.45,2.58,42.15,84.89,76.65,69.71,119.79.99.75-1.2-.08-2.85-1.4-2.75-10.92.85-22.47.37-32.97-.23-.74-.04-1.4.51-1.59,1.32-14.19,62.3-39.48,70-49.51-2.09Zm22.1,65.62c-23.6-.02-49.08,45.82-55.98,59.12-.79,1.53.24,3.44,1.84,3.36,9.45-.44,21.22-.16,30.67.17.79.03,1.47-.61,1.59-1.47,10.25-70.86,35.32-61.99,49.29-.56.18.8.84,1.36,1.59,1.32,10.52-.59,22.08-1.08,33.01-.22,1.31.1,2.14-1.53,1.39-2.72-7.84-12.43-38.82-58.99-63.39-58.99Z"/>
    </g>
  </g>
</svg>